<?xml version="1.0" standalone="no"?>
<!DOCTYPE svg PUBLIC "-//W3C//DTD SVG 20010904//EN"
 "http://www.w3.org/TR/2001/REC-SVG-20010904/DTD/svg10.dtd">
<svg version="1.0" xmlns="http://www.w3.org/2000/svg"
 width="200.000000pt" height="200.000000pt" viewBox="0 0 200.000000 200.000000"
 preserveAspectRatio="xMidYMid meet">
<metadata>
Created by potrace 1.14, written by Peter Selinger 2001-2017
</metadata>
<g transform="translate(0.000000,200.000000) scale(0.100000,-0.100000)"
fill="#000000" stroke="none">
<path d="M956 1560 c-50 -15 -105 -61 -146 -123 -22 -32 -40 -66 -40 -74 0 -8
-4 -12 -9 -8 -20 12 -168 5 -217 -9 -121 -37 -160 -136 -100 -253 13 -27 36
-63 50 -82 l25 -34 -30 -38 c-75 -94 -93 -200 -46 -263 15 -19 27 -46 27 -61
0 -28 39 -74 65 -76 8 -1 21 -2 28 -3 18 -3 65 22 75 40 6 12 27 18 69 20 l59
4 21 -42 c66 -135 196 -201 299 -152 47 22 100 78 136 141 l30 53 68 -4 c51
-2 75 -9 95 -25 57 -44 145 -10 145 56 0 15 9 42 20 58 39 59 20 151 -50 249
l-31 42 39 60 c62 94 78 165 48 222 -37 71 -115 104 -248 103 -85 0 -88 0
-101 26 -12 22 -12 30 0 54 33 67 -39 136 -114 108 -15 -5 -32 -3 -50 6 -31
16 -73 18 -117 5z m104 -30 c9 -6 13 -22 12 -47 -4 -52 32 -88 88 -87 31 1 40
-3 49 -22 6 -13 7 -24 3 -25 -30 -3 -67 -12 -132 -32 l-75 -23 -72 23 c-40 12
-84 25 -99 27 -38 7 -39 11 -11 58 30 51 86 107 125 124 33 15 92 17 112 4z
m139 -14 c13 -8 19 -52 10 -69 -14 -24 -58 -30 -86 -12 -60 40 14 119 76 81z
m-453 -189 c1 -1 -6 -34 -16 -72 -10 -39 -21 -82 -24 -96 -3 -16 -26 -42 -58
-67 -29 -22 -65 -52 -80 -66 l-27 -26 -24 33 c-112 149 -87 257 68 293 41 9
152 10 161 1z m734 -16 c53 -19 90 -68 90 -118 0 -36 -32 -109 -69 -160 l-24
-31 -75 64 c-41 35 -79 64 -84 64 -4 0 -8 8 -8 19 0 10 -11 55 -23 99 l-24 81
41 3 c64 5 127 -3 176 -21z m-571 -17 l54 -16 -99 -50 c-54 -27 -105 -55 -113
-61 -16 -13 -14 -1 15 102 l15 53 37 -6 c20 -3 61 -13 91 -22z m339 -19 c7
-21 17 -56 21 -76 l8 -36 -103 53 c-57 30 -105 57 -106 61 -4 11 111 42 142
40 20 -2 28 -11 38 -42z m-161 -46 c37 -18 96 -48 130 -68 73 -42 75 -48 72
-206 -1 -77 -5 -110 -16 -120 -35 -36 -232 -135 -267 -135 -22 0 -215 95 -251
124 l-29 23 0 133 c1 128 1 133 25 151 31 24 238 129 255 129 7 0 43 -14 81
-31z m-392 -253 l0 -114 -35 29 c-80 66 -90 75 -90 85 0 14 109 114 125 114 0
0 0 -51 0 -114z m730 31 l30 -28 -60 -55 c-33 -29 -63 -54 -66 -54 -4 0 -7 50
-7 110 l0 111 36 -28 c21 -15 51 -40 67 -56z m-728 -183 c5 -1 51 -189 47
-193 -1 -2 -22 -5 -46 -7 -39 -3 -45 -1 -63 28 -27 43 -72 56 -116 34 -32 -16
-34 -16 -51 6 -30 39 -28 90 6 163 13 28 33 60 45 73 l22 22 77 -62 c42 -34
78 -63 79 -64z m807 93 c44 -57 69 -125 63 -170 -7 -51 -21 -66 -47 -49 -35
21 -79 15 -111 -17 -16 -16 -29 -37 -29 -45 0 -13 -9 -16 -50 -13 -28 2 -53 6
-55 9 -3 3 5 46 17 96 l23 91 67 55 c36 30 69 60 73 65 11 18 23 13 49 -22z
m-235 -159 c-5 -24 -13 -54 -18 -68 -5 -14 -12 -33 -14 -42 -5 -15 -11 -15
-64 -3 -32 8 -71 19 -87 25 -28 10 -27 11 70 61 54 27 103 54 108 59 15 15 15
14 5 -32z m-412 -23 c56 -27 102 -53 102 -56 1 -5 -63 -23 -141 -39 l-36 -7
-17 61 c-9 34 -19 69 -22 80 -3 10 -1 17 3 15 5 -2 55 -26 111 -54z m657 -71
c34 -34 8 -84 -44 -84 -49 0 -69 47 -37 88 13 17 62 15 81 -4z m-915 -13 c11
-11 18 -28 16 -38 -2 -10 -4 -21 -4 -26 -1 -4 -12 -12 -26 -17 -60 -23 -113
43 -65 82 29 23 55 23 79 -1z m506 -16 c44 -14 88 -25 98 -25 22 0 22 -3 -9
-53 -82 -132 -171 -170 -269 -113 -37 22 -125 131 -125 155 0 4 35 15 78 25
42 10 84 22 92 27 24 13 50 10 135 -16z"/>
<path d="M949 1055 c-66 -36 -57 -130 16 -160 105 -44 198 74 116 147 -36 32
-88 37 -132 13z m126 -74 c0 -70 -97 -95 -129 -33 -33 62 34 119 99 83 24 -14
30 -24 30 -50z"/>
</g>
</svg>
