<svg id="e0eKkOCJRU81" xmlns="http://www.w3.org/2000/svg" xmlns:xlink="http://www.w3.org/1999/xlink" viewBox="0 0 500 500" shape-rendering="geometricPrecision" text-rendering="geometricPrecision"><defs><path id="e0eKkOCJRU82" d="M247.8,273.2c0,8.6,7,15.5,15.5,15.5h172.7c8.6,0,15.5-7,15.5-15.5v-105h-203.7v105Z"/><path id="e0eKkOCJRU83" d="M247.8,273.2c0,8.6,7,15.5,15.5,15.5h172.7c8.6,0,15.5-7,15.5-15.5v-105h-203.7v105Z"/><path id="e0eKkOCJRU84" d="M247.8,273.2c0,8.6,7,15.5,15.5,15.5h172.7c8.6,0,15.5-7,15.5-15.5v-105h-203.7v105Z"/><path id="e0eKkOCJRU85" d="M247.8,273.2c0,8.6,7,15.5,15.5,15.5h172.7c8.6,0,15.5-7,15.5-15.5v-105h-203.7v105Z"/><path id="e0eKkOCJRU86" d="M247.8,273.2c0,8.6,7,15.5,15.5,15.5h172.7c8.6,0,15.5-7,15.5-15.5v-105h-203.7v105Z"/><path id="e0eKkOCJRU87" d="M247.8,273.2c0,8.6,7,15.5,15.5,15.5h172.7c8.6,0,15.5-7,15.5-15.5v-105h-203.7v105Z"/><path id="e0eKkOCJRU88" d="M247.8,273.2c0,8.6,7,15.5,15.5,15.5h172.7c8.6,0,15.5-7,15.5-15.5v-105h-203.7v105Z"/><path id="e0eKkOCJRU89" d="M247.8,273.2c0,8.6,7,15.5,15.5,15.5h172.7c8.6,0,15.5-7,15.5-15.5v-105h-203.7v105Z"/></defs><path d="M78.1,330.6c-16.6-25.7-7.8-87.8-4.9-144.1.8-15.6,7.3-30.6,18.8-41.1c25.2-22.9,53.6-7.6,78.3,5c19.6,10,44.3,18.3,62.3,5.8c13.2-9.1,17.7-26.1,24.3-40.7c8.4-18.8,23.2-36.6,43.4-40.8c25.4-5.2,50.5,13.1,63.5,35.6c12.9,22.5,17,48.8,24.5,73.6c10.7,35.5,28.4,68.7,37.1,104.7s6.6,77.8-18.3,105.2c-19.6,21.6-50.4,30.6-79.5,29.1-29.1-1.6-57-12.5-83.1-25.5-20.9-10.4-42.1-22.5-65.4-23.1-15.5-.4-47,.5-61-6.1-15.5-7.4-30.7-23.2-40-37.6v0Z" fill="#ccc"/><path d="M252.3,74c0,.1,0,.3,0,.4h88.4c-.2-7.3-6.6-13.1-14.3-13.1-2.5,0-4.8.6-6.9,1.6.1-5.7-2.6-11.1-7.6-14-7.5-4.4-17.4-1.4-22,6.6-1.4,2.4-2.1,5-2.3,7.6-3.7-1.7-8.2-2.7-13.2-2.7-12.2.1-22.1,6.1-22.1,13.6v0Z" fill="#ccc"/><g><g><g><g><g clip-path="url(#e0eKkOCJRU818)"><path d="M247.8,273.2c0,8.6,7,15.5,15.5,15.5h172.7c8.6,0,15.5-7,15.5-15.5v-105h-203.7v105Z" fill="#fff" stroke="#18347c"/><clipPath id="e0eKkOCJRU818"><use xlink:href="#e0eKkOCJRU82" fill="#18347c" stroke="#18347c"/></clipPath></g></g></g></g><g><g><g><g clip-path="url(#e0eKkOCJRU825)"><path d="M237.1,194.9c2.4-7.6,9.9-13.5,18.2-14.1c8.2-.6,16.6,4,20.2,11.2c4.4,0,8.7,2.4,10.8,6.1s2,8.5-.4,12.1c5.2.9,9.9,4.3,12.2,9c2.3,4.6,2.2,10.3-.3,14.8c5.7-2.9,13.1-2.7,18.6.7c5.5,3.3,9,9.6,8.8,15.9c3.6-5.6,10.4-9.1,17.3-8.8c6.8.3,13.3,4.4,16.4,10.3c3.2-9.6,11.7-17.3,21.8-19.8s21.4.4,29,7.3c11.4,1.8,19.7,14.1,16.7,24.9c6.1,5.1,9.3,13.3,8,21s-6.9,14.6-14.4,17.5l-195.6-.1-16.7-74.6l29.4-33.4v0Z" fill="#2f4889"/><clipPath id="e0eKkOCJRU825"><use xlink:href="#e0eKkOCJRU83" fill="#18347c"/></clipPath></g></g></g></g><g><g><g><g clip-path="url(#e0eKkOCJRU833)"><g opacity="0.8"><path d="M234,219.7c2.3-7.6,9.6-13.5,17.6-14.1s16.1,4,19.6,11.2c4.2,0,8.4,2.4,10.5,6.1s1.9,8.5-.4,12.1c5,.9,9.6,4.3,11.8,8.9s2.1,10.3-.3,14.8c5.6-2.9,12.6-2.7,18,.7c5.3,3.3,8.7,9.6,8.5,15.9c3.5-5.6,10.1-9.1,16.7-8.8s12.9,4.4,15.8,10.3c3.1-9.6,11.4-17.3,21.1-19.8c9.8-2.5,20.7.4,28,7.3c11,1.8,19,14.1,16.1,24.9c5.9,5.1,9,13.3,7.7,21-1.2,7.7-6.7,14.6-13.9,17.5h-189l-16.1-74.6L234,219.7v0Z" fill="#5d70a3"/></g><clipPath id="e0eKkOCJRU833"><use xlink:href="#e0eKkOCJRU84" fill="#18347c"/></clipPath></g></g></g></g><g><g><g><g clip-path="url(#e0eKkOCJRU843)"><g><path d="M384.3,171.5c-56.6,53.2-96.7,67.6-147.3,72.7L233.6,298l53.1,18.1c46.4-1.3,90.9-68.5,118.4-126l-20.8-18.6" opacity="0.7" fill="#18347c"/><path d="M392.2,172.2c-9.2,10.9-23.1,21.3-39.5,35.4l22.3-9.1c-2.7,4.5-6.7,10.9-9,13.6c5.1-2.4,13.4-7.6,16.2-10.4c0,3.9-4.7,10.3-6.7,13.9c11.9-10.2,22.8-22.6,26.3-33.6l-9.6-9.8" fill="#18347c"/><path d="M394.8,172.8c-5.4,7.2-13.6,14.2-23.2,23.5l13-6.2c-1.6,3-4,7.2-5.3,9c3-1.6,7.9-5.1,9.5-7c0,2.5-2.8,6.8-4,9.1c7-6.8,13.4-15,15.6-22.2l-5.6-6.2" opacity="0.4" fill="#18347c"/></g><clipPath id="e0eKkOCJRU843"><use xlink:href="#e0eKkOCJRU85" fill="#18347c"/></clipPath></g></g></g></g><g><g><g><g clip-path="url(#e0eKkOCJRU850)"><path d="M310.3,209.7c.1,1.7,0,4.5-1.7,5.5-2.8,1.6-5-2.3-6-4.3-1.2-2.4-.9-5.3,1.9-6.4c3.6-1.3,5.7,2.1,5.8,5.2v0Z" fill="#18347c"/><clipPath id="e0eKkOCJRU850"><use xlink:href="#e0eKkOCJRU86" fill="#18347c"/></clipPath></g></g></g></g><g><g><g><g clip-path="url(#e0eKkOCJRU857)"><path d="M443.4,260.8c.1,1.7,0,4.5-1.7,5.5-2.8,1.6-5-2.3-6-4.3-1.2-2.4-.9-5.3,1.9-6.4c3.6-1.3,5.7,2.1,5.8,5.2v0Z" fill="#18347c"/><clipPath id="e0eKkOCJRU857"><use xlink:href="#e0eKkOCJRU87" fill="#18347c"/></clipPath></g></g></g></g><g><g><g><g clip-path="url(#e0eKkOCJRU864)"><circle r="2.4" transform="translate(295.4 190.7)" fill="#18347c"/><clipPath id="e0eKkOCJRU864"><use xlink:href="#e0eKkOCJRU88" fill="#18347c"/></clipPath></g></g></g></g><g><g><g><g clip-path="url(#e0eKkOCJRU871)"><circle r="3.6" transform="translate(415 233.1)" fill="#18347c"/><clipPath id="e0eKkOCJRU871"><use xlink:href="#e0eKkOCJRU89" fill="#18347c"/></clipPath></g></g></g></g></g><path d="M436.1,289.1h-172.8c-8.8,0-15.9-7.1-15.9-15.9v-105.4h204.5v105.4c0,8.8-7.1,15.9-15.8,15.9v0Zm-188-120.6v104.7c0,8.4,6.8,15.2,15.2,15.2h172.7c8.4,0,15.2-6.8,15.2-15.2v-104.7h-203.1v0Z" fill="#18347c" stroke="#18347c"/><path d="M436.1,127.4h-172.8c-8.6,0-15.5,7-15.5,15.5v25.2h203.8v-25.1c0-8.6-7-15.6-15.5-15.6Z" fill="#fff" stroke="#18347c" stroke-width="2"/><path d="M451.9,168.5h-204.4v-25.5c0-8.8,7.1-15.9,15.9-15.9h172.7c8.8,0,15.9,7.1,15.9,15.9l-.1,25.5v0Zm-203.8-.7h203.1v-24.8c0-8.4-6.8-15.2-15.2-15.2h-172.7c-8.4,0-15.2,6.8-15.2,15.2v24.8v0Z" fill="#18347c" stroke="#18347c"/><circle r="8.5" transform="translate(268.3 147.8)" fill="#18347c"/><g><circle r="8.5" transform="translate(293.4 147.8)" fill="#fff" stroke="#18347c" stroke-width="0"/><path d="M293.4,156.7c-4.9,0-8.9-4-8.9-8.9s4-8.9,8.9-8.9s8.9,4,8.9,8.9-4,8.9-8.9,8.9Zm0-17.1c-4.5,0-8.2,3.7-8.2,8.2s3.7,8.2,8.2,8.2s8.2-3.7,8.2-8.2-3.6-8.2-8.2-8.2Z" fill="#ccc" stroke="#18347c"/></g><g><path d="M358.3,155.9h-33.9c-4.5,0-8.1-3.6-8.1-8.1v0c0-4.5,3.6-8.1,8.1-8.1h33.9c4.5,0,8.1,3.6,8.1,8.1v0c.1,4.5-3.6,8.1-8.1,8.1v0Z" fill="#fff" stroke="#18347c"/><path d="M358.3,156.3h-33.9c-4.7,0-8.5-3.8-8.5-8.5s3.8-8.5,8.5-8.5h33.9c4.7,0,8.5,3.8,8.5,8.5s-3.8,8.5-8.5,8.5v0ZM324.4,140c-4.3,0-7.8,3.5-7.8,7.8s3.5,7.8,7.8,7.8h33.9c4.3,0,7.8-3.5,7.8-7.8s-3.5-7.8-7.8-7.8h-33.9Z" fill="#18347c" stroke="#18347c"/></g><path d="M427.6,108.9c-13.6,11.9-37.1,3.7-44.4,13.2L404,138.6l23.6-29.7Z" fill="#18347c"/><path d="M383.2,122.1v0c-1,2.8-.5,5.9,1.5,8.1l14.8,16.9l4.6-8.5-20.9-16.5v0Z" fill="#d3d0e9"/><path d="M458.4,133.3c-8.5,16,4.9,36.9-2.7,46.2L434.9,163l23.5-29.7v0Z" fill="#18347c"/><path d="M455.8,179.6v0c-2.5,1.7-5.6,1.8-8.3.4l-19.9-10.5l7.3-6.4l20.9,16.5Z" fill="#d3d0e9"/><polygon points="469,88.4 450.5,95.2 466.7,108" fill="#18347c"/><path d="M466.7,108c-2.6,29.4-24.3,56.8-50.6,72l-24-19c10.1-31.7,28.8-54.4,58.5-65.8L466.7,108Z" fill="#fff" stroke="#18347c" stroke-miterlimit="10"/><polygon points="392,161 381.6,168.2 411.4,191.8 416,180" fill="#18347c"/><circle r="11.1" transform="translate(443.5 120.7)" fill="#fff"/><path d="M444.4,128.5l-.1-.7c.6-.1,1.3-.2,1.9-.5l.2.6c-.7.4-1.3.6-2,.6Zm-2.1,0c-.7-.1-1.4-.3-2-.6l.3-.6c.6.3,1.2.4,1.8.6l-.1.6Zm5.9-1.5l-.4-.5c.5-.4,1-.8,1.4-1.3l.5.4c-.4.5-.9,1-1.5,1.4v0Zm-9.7-.2c-.5-.4-1-1-1.4-1.5l.5-.4c.4.5.8,1,1.3,1.4l-.4.5Zm12.1-2.5l-.6-.3c.3-.6.5-1.2.7-1.8l.7.1c-.3.7-.5,1.4-.8,2v0Zm-14.5-.9c-.2-.7-.4-1.3-.5-2l.7-.1c.1.6.2,1.3.4,1.9l-.6.2v0Zm14.7-3.1c0-.6-.2-1.3-.4-1.9l.6-.2c.2.7.3,1.4.4,2.1h-.6Zm-14.4-.9l-.7-.1c.1-.7.3-1.4.6-2l.6.3c-.2.5-.4,1.1-.5,1.8Zm13.2-2.7c-.4-.5-.8-1-1.3-1.5l.4-.5c.5.5,1,1,1.4,1.6.1,0-.5.4-.5.4Zm-11.6-.8l-.5-.4c.5-.5,1-1,1.6-1.4l.4.6c-.6.3-1.1.7-1.5,1.2Zm8.7-1.8c-.6-.3-1.2-.5-1.8-.6l.1-.7c.7.1,1.4.4,2,.7c0,0-.3.6-.3.6Zm-5.6-.3l-.2-.6c.7-.2,1.4-.4,2.1-.4v.7c-.6-.1-1.3.1-1.9.3Z" fill="#18347c"/><path d="M388.6,190.6l-.5-.4c-.8-.6-.9-1.8-.3-2.5l20.9-26.4c.6-.8,1.8-.9,2.5-.3l.5.4c.8.6.9,1.8.3,2.5l-20.9,26.4c-.6.7-1.7.9-2.5.3Z" fill="#18347c"/><path d="M425.6,420.6h-4v-.6h4v.6Zm-8,0h-4v-.6h4v.6Zm-8.1,0h-4v-.6h4v.6Zm-8.1,0h-4v-.6h4v.6Zm-8,0h-4v-.6h4v.6Zm-8.1,0h-4v-.6h4v.6Zm-8.1,0h-4v-.6h4v.6Zm-8,0h-4v-.6h4v.6Zm-8.1,0h-4v-.6h4v.6Zm-8.1,0h-4v-.6h4v.6Zm-8,0c-1.4,0-2.8-.2-4.1-.7l.2-.6c1.2.4,2.5.6,3.9.7v.6v0Zm81.1,0v-.7c1.3,0,2.6-.3,3.8-.8l.2.6c-1.2.6-2.6.9-4,.9ZM337.3,418c-1.1-.8-2.1-1.8-2.8-3l.6-.4c.7,1.1,1.6,2,2.7,2.8l-.5.6v0Zm96.4-.2l-.4-.5c1-.8,1.9-1.8,2.6-2.9l.6.4c-.8,1.1-1.7,2.1-2.8,3Zm-101-6.5c-.3-1.1-.5-2.3-.5-3.5v-.6h.7v.6c0,1.1.2,2.3.5,3.3l-.7.2v0Zm105.4-.4l-.7-.2c.2-1,.4-2,.4-3v-.9h.7v.9c0,1.1-.1,2.2-.4,3.2v0Zm-105.2-7.7h-.7v-4h.7v4Zm105.6-.4h-.7v-4h.7v4Zm-105.6-7.7h-.7v-4h.7v4Zm105.6-.3h-.7v-4h.7v4ZM332.9,387h-.7v-4h.7v4Zm105.6-.3h-.7v-4h.7v4ZM332.9,379h-.7v-4h.7v4Zm105.6-.4h-.7v-4h.7v4Zm-105.6-7.7h-.7v-4h.7v4Zm105.6-.3h-.7v-4h.7v4Zm-105.6-7.7h-.7v-2.7c0-.5,0-.9.1-1.4l.7.1c0,.4-.1.9-.1,1.3v2.7v0Zm105.6-.4h-.7v-2.3c0-.6,0-1.1-.1-1.7l.7-.1c.1.6.1,1.2.1,1.7v2.4ZM334,355.1l-.6-.3c.6-1.3,1.3-2.4,2.3-3.4l.5.5c-.9.9-1.7,2-2.2,3.2v0Zm102.6-.3c-.6-1.2-1.3-2.2-2.3-3.2l.5-.5c1,1,1.8,2.1,2.4,3.4l-.6.3Zm-97.4-5.3l-.3-.6c1.2-.7,2.5-1.1,3.9-1.4l.1.7c-1.3.2-2.5.6-3.7,1.3v0Zm92-.2c-1.2-.6-2.4-1-3.7-1.2l.1-.7c1.4.2,2.7.6,3.9,1.3l-.3.6v0Zm-7.7-1.3h-4v-.7h4v.7Zm-8.1,0h-4v-.7h4v.7Zm-8,0h-4v-.7h4v.7Zm-8.1,0h-4v-.7h4v.7Zm-8.1,0h-4v-.7h4v.7Zm-8,0h-4v-.7h4v.7Zm-8.1,0h-4v-.7h4v.7Zm-8.1,0h-4v-.7h4v.7Zm-8,0h-4v-.7h4v.7Zm-8.1,0h-4v-.7h4v.7Z" fill="#18347c"/><path d="M418.3,409h-85.8c-5.5,0-9.9-4.4-9.9-9.9v-54.8c0-5.5,4.4-9.9,9.9-9.9h85.8c5.5,0,9.9,4.4,9.9,9.9v54.8c0,5.5-4.5,9.9-9.9,9.9v0Z" fill="#18347c"/><rect width="86.2" height="22.3" rx="0" ry="0" transform="translate(332.9 344.5)" fill="#fff"/><rect width="34.1" height="25.7" rx="0" ry="0" transform="translate(332.6 374.2)" fill="#fff"/><rect width="46" height="0.5" rx="0" ry="0" transform="translate(373 386.5)" fill="#ededed"/><rect width="46" height="0.5" rx="0" ry="0" transform="translate(373 390.5)" fill="#ededed"/><rect width="46" height="0.5" rx="0" ry="0" transform="translate(373 394.5)" fill="#ededed"/><rect width="46" height="0.5" rx="0" ry="0" transform="translate(373 398.5)" fill="#ededed"/><g><path d="M157.8,261.4c-1.9-6.7-6.1-12.7-11.7-16.8l-2.3-1.7l1.9,39.8l14.9-11.5-2.8-9.8Z" fill="#fff"/><path d="M205.7,309.6l-3.3-6.5c-.8-1.6-2.3-2.9-4.1-3.3l-9.7-2.7-25-16-2.8-9.8-14.9,11.5.1,2.8c.3,5.6,3.7,10.6,8.9,12.8l24.3,10.5l11.6.3c3.7,1.3,5,4.5,7.3,3.3.9-.4-2.5-6-2.5-6l5.6,6.2l4.5-3.1v0Z" fill="#fbbb96"/><rect width="5.1" height="0.8" rx="0" ry="0" transform="matrix(.6474-.7621 0.7621 0.6474 159.99564 284.544195)" fill="#d38572"/></g><g><path d="M162.2,325.7l18.2-1.6c11.9-1,22.2,8.5,22.8,21.1l4.1,89.7-25.1.8-20-110Z" fill="#18347c"/><g><polygon points="184.1,434.8 184.9,459.6 222.1,459.6 203.8,444.3 202.6,432.4" fill="#ccc"/><rect width="9.9" height="1.5" rx="0" ry="0" transform="matrix(.7923-.6101 0.6101 0.7923 195.466676 449.76258)" fill="#fff"/></g></g><g><g><polygon points="175.7,434.8 176.4,459.6 213.7,459.6 195.3,444.3 194.1,432.4" fill="#ccc"/><rect width="9.9" height="1.5" rx="0" ry="0" transform="matrix(.7923-.6101 0.6101 0.7923 187.063459 449.775118)" fill="#fff"/></g><path d="M203.4,437.3h-30.8l-22-67.6-3.1-9.5-43.9-.2c-2.7,0-5.3-1.3-7.5-3.1-4.7-3.9-6.8-10.1-6-16.2L94,313.2l65.2,8.5c12.4,1.6,22.4,10.9,24.9,23.1l19.3,92.5v0Z" fill="#18347c"/><polygon points="156.6,360.2 150.6,369.7 147.5,360.2" fill="#18347c"/></g><g><path d="M148.5,308.2c-.3,1.3-.6,2.5-1,3.8l-2.3,9.4-30.4-1.3-21.9-.9c-5.8-.2-10-5.6-8.8-11.3l10.2-49.2c1.3-8.4,8.1-14.8,16.5-15.7l25-2.6l8.1,2.3c7.9,4.2,7.9,11.9,8.3,16.9c1.6,22.3-.4,35.6-3.7,48.6v0Z" fill="#fff"/><path d="M127.9,306.7c-.3,1.3,20,4.1,19.6,5.4l-2.3,9.4-30.4-1.3c-10.6-8-14.6-25.5-18.5-47.3c0,0,31.6,33.8,31.6,33.8Z" opacity="0.3" fill="#1a1b43"/><path d="M121.8,254.8c1.3,1.4,2.9,2.7,4.5,3.6c1.7.9,3.5,1.6,5.4,1.8s3.9.1,5.5-.8c1.7-.8,2.8-2.6,3-4.5h.3c0,1-.3,2-.8,2.9s-1.3,1.7-2.2,2.2c-1.8,1-4,1.2-6,1-2-.3-3.9-1-5.7-2-1.7-1-3.2-2.4-4.5-4l.5-.2Z" fill="#18347c"/><path d="M152.8,284.9h-.6c.6-7.8,0-17.3-1.7-28.3l.6-.1c1.7,11,2.3,20.6,1.7,28.4v0Z" fill="#18347c"/></g><g><rect width="28.6" height="5.7" rx="0" ry="0" transform="translate(175.9 312.2)" fill="#18347c"/><polygon points="254.1,317.8 196.6,317.8 223,267.2 280.6,267.2" fill="#18347c"/></g><g><path d="M128.2,200.2c-6.7-6.6-19.5-3.9-19.3,7.3-13.9,3.7-14.6,18.9-9.1,26.7l4.8.4l1.1-5.7l2.8,5.8l13.5.9l6.2-35.4Z" fill="#1e1e1e"/><path d="M139.4,225v21.2c0,.2,0,.4,0,.6-.3,4.4-4.6,7.5-8.9,6.3-6.4-1.6-10.8-7.4-10.7-14l.1-14.1h19.5v0Z" fill="#fbbb96"/><path d="M139.4,234.2v12.1c0,.2,0,.4,0,.6-5.7-.9-12.2-7.5-13.8-14.7l13.8,2v0Z" fill="#fbbb96"/><path d="M150.9,226.6c-.3,1.7-.7,3.4-1.2,5.1-1.7,5.4-4.7,9.9-10.2,9.1-12.8-1.8-19.9-15-19.9-15l8.8-10l5.9-7.9l17.6,7.6c0-.1.1,5.3-1,11.1v0Z" fill="#fbbb96"/><path d="M123.4,222.3c5.6-.2,10-3,11.8-11.2c0,0,13.1,11.3,19.5,5.3c5.4-5.1-3.7-16.7-18.8-18.1-5.5-.5-11,1.2-15.3,4.7-7.3,5.9-8,19.5-1.2,24.2l4-4.9Z" fill="#1e1e1e"/><path d="M116.8,208c-.4-1.3-.1-2.8.5-4.1s1.5-2.4,2.6-3.2c1.1-.9,2.4-1.5,3.8-1.8s2.8-.2,4.1.3c-1.3.4-2.4.9-3.5,1.4s-2,1.2-2.9,1.9-1.8,1.5-2.5,2.4c-.8.9-1.5,1.9-2.1,3.1Z" fill="#fff"/><g><ellipse rx="4.4" ry="5.3" transform="matrix(.9284-.3717 0.3717 0.9284 121.705473 223.209636)" fill="#fbbb96"/><path d="M121.7,226.1c.1-.9.1-1.8-.2-2.6s-.8-1.5-1.4-2.3l.2-.2c.9.5,1.6,1.3,1.9,2.3s.2,2.1-.3,3l-.2-.2Z" transform="translate(-.061319 0.061319)" fill="#1e1e1e"/></g><g><ellipse rx="1.3" ry="1.4" transform="translate(141.4 223.3)" fill="#1e1e1e"/><ellipse rx="1.3" ry="1.2" transform="matrix(.1222-.9925 0.9925 0.1222 148.407693 224.30675)" fill="#1e1e1e"/><path d="M142.7,219.7c.1.7-1,.7-2.6.8s-2.7.5-2.7.1s1.2-1.5,2.7-1.8c1.6-.3,2.5.1,2.6.9v0Z" transform="translate(-.061319 0.061319)" fill="#1e1e1e"/><path d="M147.8,220.3c-.1.7.7.8,1.8,1c1.2.2,1.9.8,2,.4s-.7-1.6-1.8-2c-1.2-.5-1.9-.2-2,.6Z" transform="translate(-.061319 0.061319)" fill="#1e1e1e"/><path d="M145.9,225.6c.3.4.6.7,1,1l.5.5c.2.2.4.3.5.6.1.1.2.3.2.5s0,.4-.1.5c-.2.3-.4.5-.6.6-.5.3-1,.4-1.4.5l-.1-.3c.4-.3.8-.5,1.1-.8.2-.1.3-.3.4-.4s0-.2,0-.3c-.2-.3-.6-.7-.9-1-.3-.4-.6-.8-.8-1.3l.2-.1v0Z" fill="#1e1e1e"/><path d="M139.3,230.3c.8.9,1.6,1.7,2.6,2.3c1,.5,2.1.7,3.3.6l.1.3c-.6.3-1.2.4-1.9.4-.6,0-1.3-.2-1.9-.5-1.1-.6-2-1.7-2.5-2.8l.3-.3Z" fill="#1e1e1e"/><circle r="3.2" transform="translate(134.7 226.3)" opacity="0.2" fill="#f15d55"/><path d="M150.9,226.6c-.3,1.7-.7,3.4-1.2,5.1-.5-.6-.8-1.3-.8-2.1c0-1.4.9-2.6,2-3v0Z" opacity="0.2" fill="#f15d55"/></g></g><g><g><polygon points="114.7,264.2 96.3,272.9 102.1,286.5 121.3,277.7" fill="#fff"/><path d="M182.7,311.5c-.5-.3-.8-.4-.8-.4l.2-.4c0,0,.3.2.8.4l-.2.4Z" fill="#c7c4e2"/><path d="M190.3,313.4c-.6,1.2-5.1-.9-7.3-1.9c1.6.9,4.5,2.7,3.2,3.7-1,.8-3.2-.9-10.6-3.9c1.1.5,7.7,3.6,6,4.8-1.8,1.3-9.5-1.5-9.5-1.5l-6.7,3.6h-7.7l-27.7.2c-1.7,0-3.5-.2-5.1-.6-3.3-.8-6.4-2.5-9-4.7-1.7-1.4-3.1-3-4.3-4.8-.9-1.3-1.7-2.8-2.3-4.3L102,286.7l19.3-8.9l10,20.4l33.1,7.2l9.2-2.3c2-.5,4.8.3,6.5,1.4c4.4,2.5,10.7,7.8,10.2,8.9v0Z" fill="#fbbb96"/></g><path d="M125.4,314.8c0,1-.2,2-.5,2.9-3.3-.8-6.4-2.5-9-4.7-1.7-1.4-3.1-3-4.3-4.8c1.5-1.2,3.3-1.9,5.3-1.9c4.8,0,8.5,3.8,8.5,8.5v0Z" opacity="0.2" fill="#f15d55"/><path d="M164.4,305.1c2.3-.8,4.6-1.4,7-1.9c1.2-.2,2.4-.4,3.6-.5.6,0,1.2,0,1.9,0c.3.1.6.1.9.2s.6.2.9.3c2.3,1,4.2,2.5,6.1,4s3.7,3.1,5.4,4.8l.1.1v.1c.1.4,0,.7-.2,1-.1.1-.3.3-.4.4-.2.1-.3.1-.5.2-.6.1-1.2,0-1.7-.2-1.1-.3-2-.8-3-1.3-.9-.5-1.9-1-2.8-1.6-.9-.5-1.8-1.1-2.7-1.7l.4-.6c1.6.9,3.1,1.9,4.6,3c.7.6,1.4,1.1,2.1,1.9.1.2.3.4.4.7.1.1.1.3.1.5s-.1.4-.2.5c-.2.3-.5.4-.8.4-.3.1-.5.1-.7.1h-.1-.1l-8.4-3.5.2-.6c1.3.6,2.6,1.3,3.8,2.1.6.4,1.2.8,1.7,1.5.1.2.2.5.1.7-.1.3-.3.4-.5.5-.4.2-.8.2-1.2.3-1.5,0-2.9-.3-4.3-.7s-2.8-.8-4.1-1.3l.1-.3c1.4.5,2.7.9,4.1,1.2s2.8.6,4.2.5c.7,0,1.4-.3,1.1-.7-.3-.5-.9-.9-1.5-1.3-1.2-.8-2.5-1.4-3.8-2l.2-.6l8.4,3.4h-.2c.2,0,.4,0,.6-.1.2,0,.3-.1.4-.2.1,0,0-.5-.3-.8-.5-.6-1.2-1.2-1.9-1.8-1.4-1.1-3-2-4.5-3l.4-.6c.9.6,1.7,1.2,2.6,1.7.9.6,1.8,1.1,2.7,1.6s1.9.9,2.8,1.2c.5.1,1,.2,1.4.2h.1c0,0,.1,0,.1-.1.1,0,.1-.1.2-.1.1-.1.1-.3.1-.5l.1.2c-1.7-1.7-3.5-3.3-5.3-4.8-1.9-1.5-3.8-3-5.9-4l-.8-.3c-.3-.1-.6-.1-.8-.2-.6-.1-1.2-.1-1.8-.1-1.2,0-2.4.2-3.6.4-2.4.4-4.7,1-7,1.8l.2-.1v0Z" fill="#d38572"/><polygon points="102.2,286.8 101.9,286.3 120.9,277.5 113,259 113.5,258.8 121.7,277.8" fill="#18347c"/></g><rect width="1" height="86.8" rx="0" ry="0" transform="translate(103.9 367.9)" fill="#18347c"/><path d="M128.7,371.8h-48.6c-3.3,0-6-2.7-6-6v0c0-3.3,2.7-6,6-6h48.5c3.3,0,6,2.7,6,6v0c0,3.3-2.6,6-5.9,6Z" fill="#d3d0e9"/><path d="M124.8,460.4h-40.8v-1c0-5,4-9,9-9h22.9c5,0,9,4,9,9-.1,0-.1,1-.1,1Z" fill="#d3d0e9"/><g><rect width="1" height="161.2" rx="0" ry="0" transform="matrix(.8458-.5336 0.5336 0.8458 162.27795 323.717833)" fill="#18347c"/><rect width="161.2" height="1" rx="0" ry="0" transform="matrix(.533-.8461 0.8461 0.533 162.300171 459.508874)" fill="#18347c"/></g><rect width="150.8" height="11.4" rx="0" ry="0" transform="translate(130.3 317.8)" fill="#d3d0e9"/><path d="M143,136.6c-17.4,0-31.5-14.1-31.5-31.5s14.1-31.5,31.5-31.5s31.5,14.1,31.5,31.5c0,17.3-14.2,31.5-31.5,31.5Zm0-62.4c-17,0-30.8,13.8-30.8,30.8s13.8,30.8,30.8,30.8s30.8-13.8,30.8-30.8-13.8-30.8-30.8-30.8Z" fill="#18347c"/><circle r="34.3" transform="translate(164.3 92.7)" fill="#18347c"/><polygon points="164.3,93.4 145.3,78.5 145.9,77.7 164.3,92.1 174.5,83.4 175.1,84.2" fill="#fff"/><path d="M75.3,166.7h-17.4c-2.8,0-5.1,2.3-5.1,5.1v17.4c0,2.8,2.3,5.1,5.1,5.1h12.4l5.4,7.4v-7.4c2.6-.2,4.7-2.4,4.7-5.1v-17.4c0-2.9-2.3-5.1-5.1-5.1v0Z" fill="#fff"/><path d="M76,202.6l-5.9-8.1h-12.2c-3,0-5.4-2.4-5.4-5.4v-17.4c0-3,2.4-5.4,5.4-5.4h17.4c3,0,5.4,2.4,5.4,5.4v17.4c0,2.7-2,5-4.7,5.4c0,0,0,8.1,0,8.1ZM57.9,167c-2.6,0-4.7,2.1-4.7,4.7v17.4c0,2.6,2.1,4.7,4.7,4.7h12.6l4.8,6.7v-6.7h.3c2.5-.2,4.4-2.2,4.4-4.7v-17.4c0-2.6-2.1-4.7-4.7-4.7h-17.4v0Z" fill="#18347c"/><polygon points="66.3,189.4 59.3,179.3 60.9,178.2 66.1,185.6 73.8,171.8 75.6,172.7" fill="#18347c"/><rect width="413" height="1" rx="0" ry="0" transform="translate(46 459.4)" fill="#18347c"/></svg>
